<?xml version="1.0" encoding="UTF-8"?>
<svg id="Layer_1" xmlns="http://www.w3.org/2000/svg" version="1.1" viewBox="0 0 593.83 593.83">
  <!-- Generator: Adobe Illustrator 30.2.1, SVG Export Plug-In . SVG Version: 2.1.1 Build 1)  -->
  <defs>
    <style>
      .st0 {
        stroke-width: 13px;
      }

      .st0, .st1, .st2 {
        stroke: #fff;
      }

      .st0, .st2 {
        fill: #fff;
        stroke-miterlimit: 10;
      }

      .st3 {
        stroke: #231f20;
      }

      .st3, .st1 {
        fill: none;
        stroke-linecap: round;
        stroke-linejoin: round;
        stroke-width: 6px;
      }

      .st2 {
        stroke-width: 18px;
      }
    </style>
  </defs>
  <g>
    <path class="st1" d="M-447.08,475.25h181.4c18.39,0,33.3-12.59,33.3-28.12v-131.17c0-15.53-14.91-28.12-33.3-28.12h-181.4c-18.39,0-33.3,12.59-33.3,28.12v131.17c0,15.53,14.91,28.12,33.3,28.12Z"/>
    <path class="st1" d="M-359.02,415.38h-74.87l76.44-127.54h-16.95l-104.85-131.34c-7.52-9.42-7.01-22.07,1.84-30.64,33.82-32.75,119.97,55.63,119.97,55.63v106.34l42.57,71.02"/>
    <polyline class="st1" points="-359.02 475.25 -359.02 415.38 -359.02 358.86 -314.89 358.86"/>
    <path class="st1" d="M-356.38,287.84h16.95l104.85-131.34c7.52-9.42,7.01-22.07-1.84-30.64-33.82-32.75-119.97,55.63-119.97,55.63v106.34"/>
    <path class="st1" d="M-359.02,415.38"/>
    <line class="st1" x1="-359.02" y1="415.38" x2="-297.4" y2="415.38"/>
  </g>
  <g>
    <path class="st2" d="M-941.99,284.82h-67.51l100.96-126.47c8.65-10.83,7.79-25.09-2.09-34.66-33.33-32.27-110.11,41.61-122.6,54.07-12.48-12.46-89.26-86.34-122.59-54.07-9.88,9.57-10.75,23.83-2.09,34.66l100.96,126.47h-66.44c-20.02,0-36.3,13.96-36.3,31.12v131.17c0,17.16,16.28,31.12,36.3,31.12h181.4c20.02,0,36.3-13.96,36.3-31.12v-131.17c0-17.16-16.28-31.12-36.3-31.12ZM-1029.69,182.71c4.23-4.22,23.62-23.22,46.02-38.87,22.58-15.78,52.86-31.34,68.86-15.84,7.58,7.34,8.23,18.28,1.58,26.61l-103.95,130.21h-12.51v-102.11ZM-1153.22,154.61c-6.65-8.33-6-19.27,1.58-26.61,15.99-15.49,46.24.04,68.8,15.8,22.41,15.65,41.85,34.68,46.08,38.91v102.11h-12.51l-103.95-130.21ZM-1038.33,472.23h-85.06c-16.71,0-30.3-11.27-30.3-25.12v-131.17c0-13.85,13.59-25.12,30.3-25.12h84.33l-73.72,123c-.55.93-.57,2.08-.03,3.02.53.94,1.53,1.52,2.61,1.52h71.87v53.87ZM-1038.33,358.84v53.52h-66.58l71.15-118.7,37.27,62.18h-38.84c-1.66,0-3,1.34-3,3ZM-911.69,447.11c0,13.85-13.59,25.12-30.3,25.12h-90.34v-53.87h58.62c1.66,0,3-1.34,3-3s-1.34-3-3-3h-58.62v-50.52h41.13c.07,0,.13-.01.2-.02.1,0,.21-.01.31-.03.1-.02.2-.04.3-.07.09-.03.18-.05.27-.08.1-.05.2-.1.3-.15.05-.03.11-.04.17-.08.02-.01.04-.03.06-.04.09-.06.17-.13.26-.2.07-.05.14-.11.21-.17.07-.07.13-.14.19-.21.06-.08.13-.15.19-.23.05-.08.09-.16.14-.25.05-.08.1-.16.14-.25.04-.09.07-.18.1-.27.03-.09.06-.19.08-.28.02-.09.03-.18.04-.27.02-.11.03-.21.04-.32v-.08c0-.06-.01-.12-.02-.19,0-.11-.01-.21-.03-.32-.02-.1-.04-.19-.07-.29-.02-.09-.05-.18-.08-.27-.04-.11-.09-.21-.15-.3-.02-.06-.04-.12-.07-.17l-39.85-66.48h86.48c16.71,0,30.3,11.27,30.3,25.12v131.17Z"/>
    <path class="st0" d="M-1038.33,418.36v53.87h-85.06c-16.71,0-30.3-11.27-30.3-25.12v-131.17c0-13.85,13.59-25.12,30.3-25.12h84.33l-73.72,123c-.55.93-.57,2.08-.03,3.02.53.94,1.53,1.52,2.61,1.52h71.87Z"/>
    <path class="st0" d="M-911.69,315.94v131.17c0,13.85-13.59,25.12-30.3,25.12h-90.34v-53.87h58.62c1.66,0,3-1.34,3-3s-1.34-3-3-3h-58.62v-50.52h41.13c.07,0,.13-.01.2-.02.1,0,.21-.01.31-.03.1-.02.2-.04.3-.07.09-.03.18-.05.27-.08.1-.05.2-.1.3-.15.05-.03.11-.04.17-.08.02-.01.04-.03.06-.04.09-.06.17-.13.26-.2.07-.05.14-.11.21-.17.07-.07.13-.14.19-.21.06-.08.13-.15.19-.23.05-.08.09-.16.14-.25.05-.08.1-.16.14-.25.04-.09.07-.18.1-.27.03-.09.06-.19.08-.28.02-.09.03-.18.04-.27.02-.11.03-.21.04-.32v-.08c0-.06-.01-.12-.02-.19,0-.11-.01-.21-.03-.32-.02-.1-.04-.19-.07-.29-.02-.09-.05-.18-.08-.27-.04-.11-.09-.21-.15-.3-.02-.06-.04-.12-.07-.17l-39.85-66.48h86.48c16.71,0,30.3,11.27,30.3,25.12Z"/>
    <path class="st0" d="M-913.23,154.61l-103.95,130.21h-12.51v-102.11c4.23-4.22,23.62-23.22,46.02-38.87,22.58-15.78,52.86-31.34,68.86-15.84,7.58,7.34,8.23,18.28,1.58,26.61Z"/>
    <path class="st0" d="M-1036.76,182.71v102.11h-12.51l-103.95-130.21c-6.65-8.33-6-19.27,1.58-26.61,15.99-15.49,46.24.04,68.8,15.8,22.41,15.65,41.85,34.68,46.08,38.91Z"/>
    <path class="st3" d="M-1123.39,475.23h181.4c18.39,0,33.3-12.59,33.3-28.12v-131.17c0-15.53-14.91-28.12-33.3-28.12h-181.4c-18.39,0-33.3,12.59-33.3,28.12v131.17c0,15.53,14.91,28.12,33.3,28.12Z"/>
    <path class="st3" d="M-1035.33,415.36h-74.87l76.44-127.54h-16.95l-104.85-131.34c-7.52-9.42-7.01-22.07,1.84-30.64,33.82-32.75,119.97,55.63,119.97,55.63v106.34l42.57,71.02"/>
    <polyline class="st3" points="-1035.33 475.23 -1035.33 415.36 -1035.33 358.84 -991.2 358.84"/>
    <path class="st3" d="M-1032.69,287.82h16.95l104.85-131.34c7.52-9.42,7.01-22.07-1.84-30.64-33.82-32.75-119.97,55.63-119.97,55.63v106.34"/>
    <path class="st3" d="M-1035.33,415.36"/>
    <line class="st3" x1="-1035.33" y1="415.36" x2="-973.71" y2="415.36"/>
  </g>
  <path d="M288.76,491.06v86.12h-135.98c-26.71,0-48.44-18.02-48.44-40.16v-209.7c0-22.14,21.73-40.16,48.44-40.16h134.81l-117.85,196.64c-.88,1.49-.91,3.33-.05,4.83.85,1.5,2.45,2.43,4.17,2.43h114.9Z"/>
  <path d="M491.21,327.33v209.7c0,22.14-21.73,40.16-48.44,40.16h-144.42v-86.12h93.71c2.65,0,4.8-2.14,4.8-4.8s-2.14-4.8-4.8-4.8h-93.71v-80.76h65.75c.11,0,.21-.02.32-.03.16,0,.34-.02.5-.05.16-.03.32-.06.48-.11.14-.05.29-.08.43-.13.16-.08.32-.16.48-.24.08-.05.18-.06.27-.13.03-.02.06-.05.1-.06.14-.1.27-.21.42-.32.11-.08.22-.18.34-.27.11-.11.21-.22.3-.34.1-.13.21-.24.3-.37.08-.13.14-.26.22-.4.08-.13.16-.26.22-.4.06-.14.11-.29.16-.43.05-.14.1-.3.13-.45s.05-.29.06-.43c.03-.18.05-.34.06-.51v-.13c0-.1-.02-.19-.03-.3,0-.18-.02-.34-.05-.51-.03-.16-.06-.3-.11-.46-.03-.14-.08-.29-.13-.43-.06-.18-.14-.34-.24-.48-.03-.1-.06-.19-.11-.27l-63.71-106.28h138.25c26.71,0,48.44,18.02,48.44,40.16Z"/>
  <path d="M291.27,114.34v163.24h-20L105.08,69.42c-10.63-13.32-9.59-30.81,2.53-42.54,25.56-24.76,73.92.06,109.99,25.26,35.83,25.02,66.9,55.44,73.67,62.2Z"/>
  <path d="M488.75,69.42l-166.18,208.16h-20V114.34c6.76-6.75,37.76-37.12,73.57-62.14,36.1-25.23,84.51-50.1,110.08-25.32,12.12,11.73,13.16,29.22,2.53,42.54Z"/>
  <path class="st3" d="M293.55,486.27"/>
</svg>