<?xml version="1.0" encoding="UTF-8"?>
<svg id="Layer_1" xmlns="http://www.w3.org/2000/svg" version="1.1" viewBox="0 0 593.83 593.83">
  <!-- Generator: Adobe Illustrator 30.2.1, SVG Export Plug-In . SVG Version: 2.1.1 Build 1)  -->
  <path d="M291.81,418.36v53.87h-85.06c-16.71,0-30.3-11.27-30.3-25.12v-131.17c0-13.85,13.59-25.12,30.3-25.12h84.33l-73.72,123c-.55.93-.57,2.08-.03,3.02.53.94,1.53,1.52,2.61,1.52h71.87Z"/>
  <path d="M418.45,315.94v131.17c0,13.85-13.59,25.12-30.3,25.12h-90.34v-53.87h58.62c1.66,0,3-1.34,3-3s-1.34-3-3-3h-58.62v-50.52h41.13c.07,0,.13-.01.2-.02.1,0,.21-.01.31-.03.1-.02.2-.04.3-.07.09-.03.18-.05.27-.08.1-.05.2-.1.3-.15.05-.03.11-.04.17-.08.02-.01.04-.03.06-.04.09-.06.17-.13.26-.2.07-.05.14-.11.21-.17.07-.07.13-.14.19-.21.06-.08.13-.15.19-.23.05-.08.09-.16.14-.25.05-.08.1-.16.14-.25.04-.09.07-.18.1-.27.03-.09.06-.19.08-.28s.03-.18.04-.27c.02-.11.03-.21.04-.32v-.08c0-.06-.01-.12-.02-.19,0-.11-.01-.21-.03-.32-.02-.1-.04-.19-.07-.29-.02-.09-.05-.18-.08-.27-.04-.11-.09-.21-.15-.3-.02-.06-.04-.12-.07-.17l-39.85-66.48h86.48c16.71,0,30.3,11.27,30.3,25.12Z"/>
  <path d="M293.38,182.71v102.11h-12.51l-103.95-130.21c-6.65-8.33-6-19.27,1.58-26.61,15.99-15.49,46.24.04,68.8,15.8,22.41,15.65,41.85,34.68,46.08,38.91Z"/>
  <path d="M416.91,154.61l-103.95,130.21h-12.51v-102.11c4.23-4.22,23.62-23.22,46.02-38.87,22.58-15.78,52.86-31.34,68.86-15.84,7.58,7.34,8.23,18.28,1.58,26.61Z"/>
</svg>