<?xml version="1.0" encoding="UTF-8"?>
<svg id="Layer_1" xmlns="http://www.w3.org/2000/svg" version="1.1" viewBox="0 0 512 512">
  <!-- Generator: Adobe Illustrator 30.2.1, SVG Export Plug-In . SVG Version: 2.1.1 Build 1)  -->
  <path d="M249.04,421.48v73.4h-115.9c-22.77,0-41.29-15.36-41.29-34.23v-178.73c0-18.87,18.52-34.23,41.29-34.23h114.91l-100.45,167.6c-.75,1.27-.78,2.83-.04,4.12.72,1.28,2.08,2.07,3.56,2.07h97.93Z"/>
  <path d="M421.6,281.92v178.73c0,18.87-18.52,34.23-41.29,34.23h-123.1v-73.4h79.88c2.26,0,4.09-1.83,4.09-4.09s-1.83-4.09-4.09-4.09h-79.88v-68.84h56.04c.1,0,.18-.01.27-.03.14,0,.29-.01.42-.04.14-.03.27-.05.41-.1.12-.04.25-.07.37-.11.14-.07.27-.14.41-.2.07-.04.15-.05.23-.11.03-.01.05-.04.08-.05.12-.08.23-.18.35-.27.1-.07.19-.15.29-.23.1-.1.18-.19.26-.29.08-.11.18-.2.26-.31.07-.11.12-.22.19-.34.07-.11.14-.22.19-.34.05-.12.1-.25.14-.37.04-.12.08-.26.11-.38s.04-.25.05-.37c.03-.15.04-.29.05-.44v-.11c0-.08-.01-.16-.03-.26,0-.15-.01-.29-.04-.44-.03-.14-.05-.26-.1-.4-.03-.12-.07-.25-.11-.37-.05-.15-.12-.29-.2-.41-.03-.08-.05-.16-.1-.23l-54.3-90.59h117.84c22.77,0,41.29,15.36,41.29,34.23Z"/>
  <path d="M251.18,100.39v139.13h-17.05L92.5,62.1c-9.06-11.35-8.18-26.26,2.15-36.26,21.79-21.11,63.01.05,93.75,21.53,30.54,21.32,57.02,47.25,62.79,53.02Z"/>
  <path d="M419.5,62.1l-141.64,177.42h-17.05V100.39c5.76-5.75,32.18-31.64,62.71-52.96,30.77-21.5,72.03-42.7,93.83-21.58,10.33,10,11.21,24.91,2.15,36.26Z"/>
</svg>